:FULLY-SPECIFIED
:FORCE-ALL-JOINTS-BE-3DOF
:DEGREES
170
root 6.49692 16.0668 -25.663 3.97217 29.8252 1.45295
lfemur -26.1726 31.7048 -17.1337
ltibia 41.532 0 0
lfoot -7.77669 10.6995 0
ltoes 14.2864 0 0
rfemur -19.618 -2.9069 -6.0457
rtibia 59.7373 0 0
rfoot 7.70352 -26.3495 0
rtoes 44.0307 0 0
lowerback 1.21492 -4.99606 -1.27202
upperback -0.0315076 -6.67588 -2.41524
thorax -0.855738 -3.33383 -1.6314
lowerneck -9.42299 -7.42668 -1.66451
upperneck 1.76175 -9.96005 5.29439
head 2.58571 -4.80048 1.46221
lclavicle -1.00065e-13 2.96814e-15 0
lhumerus -49.9662 -41.5848 115.911
lradius 52.442 0 0
lwrist 15.538 0 0
lhand 37.4757 28.8465 0
lfingers 7.12502 0 0
lthumb 60.2819 42.4094 0
rclavicle -1.00065e-13 2.96814e-15 0
rhumerus -48.3636 -13.4852 -79.4823
rradius 89.7941 0 0
rwrist -4.71286 0 0
rhand -41.9313 -52.2633 0
rfingers 7.12502 0 0
rthumb -14.8412 -441.241 0
171
root 6.43394 16.0419 -25.6445 4.14393 29.8233 1.46387
lfemur -26.13 31.5565 -16.9277
ltibia 41.2747 0 0
lfoot -7.65739 10.5576 0
ltoes 14.8271 0 0
rfemur -18.4338 -2.48297 -6.80517
rtibia 58.5638 0 0
rfoot 7.15571 -26.9631 0
rtoes 45.3078 0 0
lowerback 0.948769 -4.97057 -1.15812
upperback -0.101921 -6.62247 -2.46791
thorax -0.801691 -3.30783 -1.77067
lowerneck -9.41868 -7.46613 -1.64791
upperneck 1.8131 -10.0183 5.29855
head 2.60371 -4.82829 1.45737
lclavicle -1.01908e-13 2.81367e-15 0
lhumerus -50.244 -41.7337 116.251
lradius 52.5607 0 0
lwrist 15.6773 0 0
lhand 37.7601 29.1584 0
lfingers 7.12502 0 0
lthumb 60.5333 42.5227 0
rclavicle -1.01908e-13 2.81367e-15 0
rhumerus -48.3787 -12.6135 -79.5884
rradius 90.2178 0 0
rwrist -4.80084 0 0
rhand -41.1169 -51.7264 0
rfingers 7.12502 0 0
rthumb -14.0644 -440.056 0
172
root 6.37096 16.017 -25.6261 4.25962 29.9618 1.45496
lfemur -26.2556 31.6444 -16.8801
ltibia 41.26 0 0
lfoot -7.4658 10.6033 0
ltoes 15.0432 0 0
rfemur -17.4901 -2.0859 -7.37649
rtibia 57.7317 0 0
rfoot 6.92328 -27.6324 0
rtoes 46.2225 0 0
lowerback 0.766052 -4.96602 -1.07214
upperback -0.153089 -6.60206 -2.48495
thorax -0.76852 -3.29809 -1.85104
lowerneck -9.40202 -7.53298 -1.66652
upperneck 1.84284 -10.1076 5.31227
head 2.61375 -4.87215 1.46016
lclavicle -1.04021e-13 2.703e-15 0
lhumerus -50.4215 -41.8384 116.522
lradius 52.64 0 0
lwrist 15.7464 0 0
lhand 37.9688 29.3919 0
lfingers 7.12502 0 0
lthumb 60.7184 42.6145 0
rclavicle -1.04021e-13 2.703e-15 0
rhumerus -48.4814 -12.0922 -79.8795
rradius 90.4822 0 0
rwrist -4.782 0 0
rhand -40.6877 -51.4312 0
rfingers 7.12502 0 0
rthumb -13.6551 -438.883 0
173
root 6.30797 15.9921 -25.6076 4.32776 30.1979 1.432
lfemur -26.4979 31.8982 -16.9498
ltibia 41.4223 0 0
lfoot -7.22657 10.7785 0
ltoes 15.0132 0 0
rfemur -16.7681 -1.72683 -7.78083
rtibia 57.1901 0 0
rfoot 6.93316 -28.3111 0
rtoes 46.8214 0 0
lowerback 0.65316 -4.97729 -1.01132
upperback -0.187406 -6.60715 -2.47508
thorax -0.751846 -3.3009 -1.88409
lowerneck -9.37796 -7.61716 -1.71133
upperneck 1.85542 -10.2158 5.33302
head 2.61766 -4.9259 1.46884
lclavicle -1.06198e-13 2.62195e-15 0
lhumerus -50.5145 -41.9038 116.725
lradius 52.6859 0 0
lwrist 15.7585 0 0
lhand 38.113 29.5565 0
lfingers 7.12502 0 0
lthumb 60.8468 42.6846 0
rclavicle -1.06198e-13 2.62195e-15 0
rhumerus -48.6569 -11.8257 -80.3049
rradius 90.6358 0 0
rwrist -4.68504 0 0
rhand -40.5327 -51.307 0
rfingers 7.12502 0 0
rthumb -13.5071 -437.692 0
174
root 6.24499 15.9672 -25.5892 4.35688 30.4888 1.40081
lfemur -26.8054 32.2479 -17.0954
ltibia 41.6957 0 0
lfoot -6.96435 11.0248 0
ltoes 14.8155 0 0
rfemur -16.2496 -1.4169 -8.03934
rtibia 56.8878 0 0
rfoot 7.11226 -28.953 0
rtoes 47.1509 0 0
lowerback 0.596482 -4.99925 -0.972887
upperback -0.207264 -6.63025 -2.44701
thorax -0.747287 -3.31255 -1.88137
lowerneck -9.35144 -7.70857 -1.77331
upperneck 1.85533 -10.331 5.35831
head 2.61727 -4.98335 1.48165
lclavicle -1.08232e-13 2.55636e-15 0
lhumerus -50.5388 -41.9348 116.865
lradius 52.7045 0 0
lwrist 15.727 0 0
lhand 38.2035 29.6614 0
lfingers 7.12502 0 0
lthumb 60.9277 42.7328 0
rclavicle -1.08232e-13 2.55636e-15 0
rhumerus -48.8901 -11.7181 -80.8141
rradius 90.7267 0 0
rwrist -4.53867 0 0
rhand -40.5405 -51.2832 0
rfingers 7.12502 0 0
rthumb -13.5145 -436.455 0
175
root 6.18201 15.9424 -25.5707 4.3555 30.7915 1.36716
lfemur -27.1265 32.6232 -17.2757
ltibia 42.0144 0 0
lfoot -6.7038 11.2844 0
ltoes 14.5287 0 0
rfemur -15.9159 -1.16723 -8.1732
rtibia 56.7741 0 0
rfoot 7.38751 -29.5117 0
rtoes 47.2577 0 0
lowerback 0.582409 -5.02677 -0.954069
upperback -0.215058 -6.66387 -2.40947
thorax -0.750462 -3.3293 -1.85446
lowerneck -9.32742 -7.79712 -1.84344
upperneck 1.84701 -10.4408 5.38563
head 2.61441 -5.03834 1.49681
lclavicle -1.09918e-13 2.49205e-15 0
lhumerus -50.5099 -41.9365 116.943
lradius 52.702 0 0
lwrist 15.6651 0 0
lhand 38.2513 29.7161 0
lfingers 7.12502 0 0
lthumb 60.9707 42.7592 0
rclavicle -1.09918e-13 2.49205e-15 0
rhumerus -49.166 -11.6737 -81.3565
rradius 90.8034 0 0
rwrist -4.37161 0 0
rhand -40.6001 -51.2892 0
rfingers 7.12502 0 0
rthumb -13.571 -435.143 0
176
root 6.11903 15.9175 -25.5523 4.33216 31.0634 1.33685
lfemur -27.4096 32.9539 -17.4493
ltibia 42.3128 0 0
lfoot -6.46958 11.4988 0
ltoes 14.2311 0 0
rfemur -15.7486 -0.988973 -8.20356
rtibia 56.7978 0 0
rfoot 7.68584 -29.9411 0
rtoes 47.1883 0 0
lowerback 0.597331 -5.0547 -0.952101
upperback -0.213181 -6.70051 -2.37118
thorax -0.756991 -3.34746 -1.81491
lowerneck -9.31084 -7.87274 -1.9127
upperneck 1.83493 -10.5334 5.41247
head 2.61091 -5.08468 1.51258
lclavicle -1.11049e-13 2.41486e-15 0
lhumerus -50.4436 -41.9138 116.961
lradius 52.6844 0 0
lwrist 15.5862 0 0
lhand 38.2672 29.7299 0
lfingers 7.12502 0 0
lthumb 60.985 42.7635 0
rclavicle -1.11049e-13 2.41486e-15 0
rhumerus -49.4697 -11.5966 -81.8814
rradius 90.9142 0 0
rwrist -4.21257 0 0
rhand -40.6001 -51.2542 0
rfingers 7.12502 0 0
rthumb -13.5707 -433.728 0
177
root 6.05605 15.8926 -25.5338 4.29537 31.2614 1.31568
lfemur -27.6033 33.17 -17.5749
ltibia 42.5251 0 0
lfoot -6.28635 11.6101 0
ltoes 14.0013 0 0
rfemur -15.7292 -0.893264 -8.15158
rtibia 56.9082 0 0
rfoot 7.93416 -30.1947 0
rtoes 46.9892 0 0
lowerback 0.62764 -5.07792 -0.964214
upperback -0.204027 -6.73268 -2.34086
thorax -0.762493 -3.36329 -1.77429
lowerneck -9.30664 -7.92533 -1.97207
upperneck 1.82356 -10.5966 5.43634
head 2.6086 -5.1162 1.5272
lclavicle -1.11419e-13 2.31063e-15 0
lhumerus -50.3557 -41.8717 116.923
lradius 52.6579 0 0
lwrist 15.5035 0 0
lhand 38.2622 29.7122 0
lfingers 7.12502 0 0
lthumb 60.9801 42.7456 0
rclavicle -1.11419e-13 2.31063e-15 0
rhumerus -49.7862 -11.3912 -82.3383
rradius 91.1074 0 0
rwrist -4.09026 0 0
rhand -40.4294 -51.1076 0
rfingers 7.12502 0 0
rthumb -13.4073 -432.182 0
178
root 5.99307 15.8677 -25.5154 4.25367 31.3428 1.30944
lfemur -27.656 33.2012 -17.6114
ltibia 42.5855 0 0
lfoot -6.17876 11.5601 0
ltoes 13.9176 0 0
rfemur -15.8392 -0.891243 -8.03843
rtibia 57.0541 0 0
rfoot 8.0594 -30.2264 0
rtoes 46.7069 0 0
lowerback 0.659726 -5.0913 -0.98764
upperback -0.189989 -6.75288 -2.32723
thorax -0.762588 -3.37308 -1.74417
lowerneck -9.31977 -7.94481 -2.01252
upperneck 1.81737 -10.6183 5.45471
head 2.60931 -5.12671 1.53889
lclavicle -1.10822e-13 2.16518e-15 0
lhumerus -50.2617 -41.8152 116.831
lradius 52.6286 0 0
lwrist 15.4302 0 0
lhand 38.2473 29.6722 0
lfingers 7.12502 0 0
lthumb 60.9653 42.7055 0
rclavicle -1.10822e-13 2.16518e-15 0
rhumerus -50.1004 -10.9616 -82.6766
rradius 91.4314 0 0
rwrist -4.03339 0 0
rhand -39.9768 -50.7786 0
rfingers 7.12502 0 0
rthumb -12.9748 -430.475 0
